<?xml version="1.0" encoding="UTF-8"?>
<svg width="27px" height="32px" viewBox="0 0 27 32" version="1.1" xmlns="http://www.w3.org/2000/svg" xmlns:xlink="http://www.w3.org/1999/xlink">
    <!-- Generator: Sketch 43.2 (39069) - http://www.bohemiancoding.com/sketch -->
    <title>android-logo</title>
    <desc>Created with Sketch.</desc>
    <defs></defs>
    <g id="Page-1" stroke="none" stroke-width="1" fill="none" fill-rule="evenodd">
        <g id="android-logo">
            <g id="Shape" transform="translate(4.000000, 10.000000)">
                <g id="path-2-link" transform="translate(1.000000, 1.000000)" fill="#6772E5">
                    <path d="M0,12.9530868 C0,13.905977 0.75848348,14.6820422 1.68656839,14.6820422 L15.3147114,14.6820422 C16.2414556,14.6820422 17,13.905977 17,12.9530868 L17,0 L0,0 L0,12.9530868 Z" id="path-2"></path>
                </g>
                <path d="M0,13.9530868 C0,15.4524007 1.20020459,16.6820422 2.68656839,16.6820422 L16.3147114,16.6820422 C17.8000683,16.6820422 19,15.4520672 19,13.9530868 L19,1 L19,0 L18,0 L1,0 L0,0 L0,1 L0,13.9530868 Z" stroke="#FFFFFF" stroke-width="2"></path>
            </g>
            <path d="M17.704345,2.80161222 L19.1262627,0.491936587 C19.2176635,0.346260135 19.1771687,0.147077682 19.0374647,0.0522319288 C18.8990924,-0.0439514747 18.7097536,-0.00407676568 18.6196239,0.145676335 L17.1455291,2.53510139 C16.0396402,2.05832472 14.8044586,1.79041253 13.5000303,1.79041253 C12.1943308,1.79041253 10.961752,2.05832472 9.85326027,2.53510139 L8.38176827,0.145676335 C8.29169916,-0.00407676568 8.10102866,-0.0439514747 7.96132469,0.0522319288 C7.82162072,0.147013985 7.78112594,0.346260135 7.87252671,0.491936587 L9.29571552,2.80161222 C6.73001698,4.12480285 5,6.6186283 5,9.47928833 C5,9.65515746 5.01047174,9.82828758 5.02481743,10.0000164 L21.9765142,10.0000164 C21.9908599,9.82828758 22,9.65515746 22,9.47928833 C22.0000605,6.6186283 20.2687119,4.12480285 17.704345,2.80161222 Z M9.56991786,6.93737118 C9.11945124,6.93737118 8.75384813,6.55537656 8.75384813,6.08000124 C8.75384813,5.60462591 9.11945124,5.22396895 9.56991786,5.22396895 C10.0229873,5.22396895 10.3859876,5.60456222 10.3859876,6.08000124 C10.3859876,6.55544026 10.0203845,6.93737118 9.56991786,6.93737118 Z M17.4288715,6.93737118 C16.9784049,6.93737118 16.6128018,6.55537656 16.6128018,6.08000124 C16.6128018,5.60462591 16.9784049,5.22396895 17.4288715,5.22396895 C17.8806093,5.22396895 18.2436096,5.60456222 18.2436096,6.08000124 C18.2436096,6.55537656 17.8806093,6.93737118 17.4288715,6.93737118 Z" id="Shape" fill="#6772E5" fill-rule="nonzero"></path>
            <path d="M2.04133762,11 L1.95723246,11 C0.879074453,11 0,11.8508628 0,12.8884162 L0,21.1102668 C0,22.1518965 0.879074453,23 1.95723246,23 L2.04276754,23 C3.12092555,23 4,22.1491372 4,21.1102668 L4,12.8883535 C3.99857008,11.8508628 3.11813071,11 2.04133762,11 Z" id="Shape" fill="#6772E5" fill-rule="nonzero"></path>
            <path d="M10.0413376,20 L9.95723246,20 C8.87907445,20 8,20.8508628 8,21.8884162 L8,30.1102668 C8,31.1518965 8.87907445,32 9.95723246,32 L10.0427675,32 C11.1209255,32 12,31.1491372 12,30.1102668 L12,21.8883535 C11.9985701,20.8508628 11.1181307,20 10.0413376,20 Z" id="Shape-Copy" fill="#6772E5" fill-rule="nonzero"></path>
            <path d="M17.0413376,20 L16.9572325,20 C15.8790745,20 15,20.8508628 15,21.8884162 L15,30.1102668 C15,31.1518965 15.8790745,32 16.9572325,32 L17.0427675,32 C18.1209255,32 19,31.1491372 19,30.1102668 L19,21.8883535 C18.9985701,20.8508628 18.1181307,20 17.0413376,20 Z" id="Shape-Copy-2" fill="#6772E5" fill-rule="nonzero"></path>
            <path d="M25.0413376,11 L24.9572325,11 C23.8790745,11 23,11.8508628 23,12.8884162 L23,21.1102668 C23,22.1518965 23.8790745,23 24.9572325,23 L25.0427675,23 C26.1209255,23 27,22.1491372 27,21.1102668 L27,12.8883535 C26.9985701,11.8508628 26.1181307,11 25.0413376,11 Z" id="Shape" fill="#6772E5" fill-rule="nonzero"></path>
        </g>
    </g>
</svg>