<?xml version="1.0" encoding="UTF-8"?>
<svg width="26px" height="32px" viewBox="0 0 26 32" version="1.1" xmlns="http://www.w3.org/2000/svg" xmlns:xlink="http://www.w3.org/1999/xlink">
    <!-- Generator: Sketch 43.2 (39069) - http://www.bohemiancoding.com/sketch -->
    <title>apple-icon</title>
    <desc>Created with Sketch.</desc>
    <defs></defs>
    <g id="Page-1" stroke="none" stroke-width="1" fill="none" fill-rule="evenodd">
        <g id="apple-icon" fill-rule="nonzero" fill="#6772E5">
            <path d="M21.6583905,17.002875 C21.6182087,12.9503125 24.9475771,11.00675 25.0962996,10.9101875 C23.2256058,8.1595625 20.311491,7.78275 19.273046,7.7391875 C16.7930317,7.486875 14.433936,9.2063125 13.1752996,9.2063125 C11.9198355,9.2063125 9.97761061,7.7765 7.92081157,7.8140625 C5.21768238,7.8544375 2.72522784,9.393375 1.33335702,11.8259375 C-1.47514059,16.7228125 0.614127358,23.9771875 3.35146707,27.948625 C4.68903645,29.892625 6.28399339,32.076 8.378113,31.998 C10.3947302,31.917125 11.157314,30.6868125 13.5954049,30.6868125 C16.0334336,30.6868125 16.7188259,31.998 18.8528786,31.95775 C21.0229455,31.91725 22.3977733,29.9765625 23.7261369,28.026625 C25.2621274,25.771375 25.8945867,23.5879375 25.9319073,23.475875 C25.8837015,23.45375 21.700314,21.8434375 21.6583905,17.002875 Z" id="Shape"></path>
            <path d="M17.6484192,5.1100625 C18.7598881,3.755125 19.5100939,1.8753125 19.3054527,0 C17.7044623,0.0655 15.7638546,1.0715625 14.6151896,2.4234375 C13.5845197,3.6226875 12.6822948,5.53675 12.9240699,7.3745625 C14.7113522,7.5146875 16.5357685,6.4619375 17.6484192,5.1100625 Z" id="Path"></path>
        </g>
    </g>
</svg>