<?xml version="1.0" encoding="UTF-8"?>
<svg width="25px" height="25px" viewBox="0 0 25 25" version="1.1" xmlns="http://www.w3.org/2000/svg" xmlns:xlink="http://www.w3.org/1999/xlink">
    <!-- Generator: Sketch 42 (36781) - http://www.bohemiancoding.com/sketch -->
    <title>Elements/Check/Blue</title>
    <desc>Created with Sketch.</desc>
    <defs></defs>
    <g id="Symbols" stroke="none" stroke-width="1" fill="none" fill-rule="evenodd">
        <g id="Elements/Check/Blue" fill="#0FAFF0">
            <g id="Group-12">
                <circle id="Oval-6" opacity="0.125452899" cx="12.5" cy="12.5" r="12.5"></circle>
                <path d="M11.1523242,15.1789142 C11.1522474,15.1789888 11.1486765,15.1789888 11.1483868,15.1787079 C11.1143428,15.143812 11.1143428,15.143812 10.9999713,15.034095 C10.8388612,14.8776565 10.8388612,14.8776565 10.6111592,14.6567589 C10.3165411,14.3709819 9.91515929,13.9818368 9.43365547,13.5151274 C9.43317805,13.5146646 9.43317805,13.5146646 9.43270063,13.5142019 C9.05739335,13.1504262 8.78931686,12.8906251 8.25316865,12.3710661 C7.82424995,11.9554419 7.82424995,11.9554419 7.71701636,11.8515417 C7.72185135,11.8562301 7.72185135,11.868326 7.71690487,11.8731144 C7.71836035,11.8717013 7.72439285,11.8717013 7.72585222,11.873114 L10.914888,14.9657358 L11.1548324,15.198426 L11.3947812,14.9657404 L18.0609012,8.5014007 C18.0604782,8.50181043 18.0654659,8.50181043 18.0654744,8.50181866 C18.0592005,8.49575582 18.0591911,8.48181315 18.0650814,8.47608159 L11.152545,15.1786999 L11.1523242,15.1789142 Z M11.6324086,15.6735921 L18.5453793,8.97055195 C18.8185003,8.70479323 18.8182059,8.27061343 18.5445002,8.00611548 C18.2773934,7.74799598 17.8490108,7.74799598 17.5816579,8.00590868 L10.9148927,14.4708724 L11.3947859,14.4708769 L8.20553023,11.3780421 C7.93643139,11.1175421 7.50540922,11.1175421 7.23702502,11.3782383 C6.96262315,11.6438702 6.96262315,12.0802233 7.23723615,12.3465147 C7.34455716,12.4504996 7.34455716,12.4504996 7.77345765,12.8661062 C8.30958344,13.3856435 8.57764396,13.6454291 8.95292848,14.0091827 C8.95340587,14.0096454 8.95340587,14.0096454 8.95388325,14.0101082 C9.4353312,14.4767634 9.83665963,14.8658567 10.1312042,15.1515624 C10.3588047,15.3723617 10.3588047,15.3723617 10.5196529,15.5285457 C10.6472412,15.6540064 10.6472412,15.6540064 10.6257658,15.6233471 C10.9362528,15.9332166 11.3651311,15.9332166 11.6326294,15.6733778 L11.6324086,15.6735921 Z" id="Icon" fill-rule="nonzero"></path>
            </g>
        </g>
    </g>
</svg>