<?xml version="1.0" encoding="UTF-8"?>
<svg width="1026px" height="427px" viewBox="0 0 1026 427" version="1.1" xmlns="http://www.w3.org/2000/svg" xmlns:xlink="http://www.w3.org/1999/xlink">
    <!-- Generator: Sketch 43.2 (39069) - http://www.bohemiancoding.com/sketch -->
    <title>default-circles</title>
    <desc>Created with Sketch.</desc>
    <defs>
        <rect id="path-1" x="0" y="0" width="1036" height="433"></rect>
    </defs>
    <g id="Page-1" stroke="none" stroke-width="1" fill="none" fill-rule="evenodd">
        <g id="default-circles" transform="translate(-5.000000, -6.000000)">
            <mask id="mask-2" fill="white">
                <use xlink:href="#path-1"></use>
            </mask>
            <g id="Mask"></g>
            <g id="Circles" opacity="0.345731431" mask="url(#mask-2)" stroke="#FFFFFF" stroke-width="2">
                <g transform="translate(-182.000000, -238.000000)" id="Circle">
                    <path d="M695.6285,989.85064 C857.207439,989.85064 988.193051,858.865029 988.193051,697.286089 C988.193051,535.70715 857.207439,404.721539 695.6285,404.721539 C534.04956,404.721539 403.063949,535.70715 403.063949,697.286089" opacity="0.5" transform="translate(695.628500, 697.286089) rotate(-330.000000) translate(-695.628500, -697.286089) "></path>
                    <path d="M695.6285,808.519218 C757.06086,808.519218 806.861628,758.71845 806.861628,697.286089 C806.861628,635.853729 757.06086,586.052961 695.6285,586.052961 C634.196139,586.052961 584.395372,635.853729 584.395372,697.286089" opacity="0.5" transform="translate(695.628500, 697.286089) rotate(-222.000000) translate(-695.628500, -697.286089) "></path>
                    <path d="M695.6285,742.985223 C720.867434,742.985223 741.327633,722.525024 741.327633,697.286089 C741.327633,672.047155 720.867434,651.586956 695.6285,651.586956 C670.389565,651.586956 649.929366,672.047155 649.929366,697.286089" opacity="0.5" transform="translate(695.628500, 697.286089) rotate(-97.000000) translate(-695.628500, -697.286089) "></path>
                    <path d="M417.982255,979.417154 C573.452834,1134.77611 825.520446,1134.77611 980.991025,979.417154 C1136.4616,824.0582 1136.4616,572.171568 980.991025,416.812614 C825.520446,261.45366 573.452834,261.45366 417.982255,416.812614" opacity="0.300000012"></path>
                    <path d="M490.000012,578.696193 C423.64014,693.400052 463.021037,840.071307 577.959707,906.295611 C692.898377,972.519915 839.869884,933.219471 906.229756,818.515612 C972.589628,703.811753 933.208732,557.140498 818.270062,490.916194" opacity="0.5"></path>
                    <circle opacity="0.5" cx="698.943679" cy="700.601268" r="184.821232"></circle>
                    <circle opacity="0.200000018" transform="translate(699.772474, 699.772474) rotate(-240.000000) translate(-699.772474, -699.772474) " cx="699.772474" cy="699.772474" r="512.195162"></circle>
                    <circle opacity="0.299999982" transform="translate(699.772474, 699.772474) rotate(-15.000000) translate(-699.772474, -699.772474) " cx="699.772474" cy="699.772474" r="454.179529"></circle>
                    <path d="M1001.18022,875.667801 C1097.28762,709.134792 1040.25322,496.189858 873.790317,400.04198 C707.327415,303.894102 494.472129,360.952525 398.364728,527.485535 C302.257327,694.018544 359.291729,906.963478 525.75463,1003.11136" opacity="0.400000006"></path>
                </g>
            </g>
        </g>
    </g>
</svg>