<?xml version="1.0" encoding="UTF-8"?>
<svg width="19px" height="13px" viewBox="0 0 19 13" version="1.1" xmlns="http://www.w3.org/2000/svg" xmlns:xlink="http://www.w3.org/1999/xlink">
    <!-- Generator: Sketch 46.1 (44463) - http://www.bohemiancoding.com/sketch -->
    <title>icon-mail</title>
    <desc>Created with Sketch.</desc>
    <defs></defs>
    <g id="Symbols" stroke="none" stroke-width="1" fill="none" fill-rule="evenodd" opacity="0.400000006">
        <g id="footer" transform="translate(-1037.000000, -88.000000)" fill="#FFFFFF">
            <g transform="translate(0.000000, 0.394958)" id="social">
                <g transform="translate(1037.000000, 85.605042)">
                    <g id="icons" transform="translate(0.000000, 0.235294)">
                        <g id="icon-mail" transform="translate(0.000000, 0.764706)">
                            <g id="Fill-1-+-Fill-2" transform="translate(0.000000, 1.008403)">
                                <path d="M18.6812789,0.858443359 L12.9376898,5.74965826 L9.36973802,8.65291266 L5.82802693,5.77188166 L0.0587167478,0.858443359 C0.0239023929,0.965942587 0,1.07835164 0,1.19696256 L0,11.546089 C0,11.613276 0.0083138758,11.6781373 0.0210444981,11.7417066 C0.112497132,12.2660238 0.57183877,12.6688875 1.12419189,12.6688875 L17.6072301,12.6688875 C18.1037244,12.6688875 18.522276,12.3422552 18.6695875,11.8957199 L18.6758229,11.9019218 C18.7145344,11.7892543 18.7399957,11.6709018 18.7399957,11.546089 L18.7399957,1.19696256 C18.7399957,1.07835164 18.7163531,0.965942587 18.6812789,0.858443359" id="Fill-1"></path>
                                <path d="M7.76360114,6.02021521 L9.36973802,7.31976718 L11.7945319,5.35738944 L17.9332899,0.131273096 C17.8324842,0.101555762 17.7277813,0.0806244214 17.6176224,0.0806244214 L1.12237323,0.0806244214 C1.01195457,0.0806244214 0.907251696,0.101555762 0.806186144,0.131531508 L6.9485815,5.36049038 L7.76360114,6.02021521" id="Fill-2"></path>
                            </g>
                        </g>
                    </g>
                </g>
            </g>
        </g>
    </g>
</svg>