<?xml version="1.0" encoding="UTF-8"?>
<svg width="19px" height="15px" viewBox="0 0 19 15" version="1.1" xmlns="http://www.w3.org/2000/svg" xmlns:xlink="http://www.w3.org/1999/xlink">
    <!-- Generator: Sketch 46.1 (44463) - http://www.bohemiancoding.com/sketch -->
    <title>icon-twitter</title>
    <desc>Created with Sketch.</desc>
    <defs></defs>
    <g id="Symbols" stroke="none" stroke-width="1" fill="none" fill-rule="evenodd" opacity="0.400000006">
        <g id="footer" transform="translate(-1037.000000, -146.000000)">
            <g transform="translate(0.000000, 0.394958)" id="social">
                <g transform="translate(1037.000000, 85.605042)">
                    <g id="icons" transform="translate(0.000000, 0.235294)">
                        <g id="icon-twitter" transform="translate(0.000000, 58.243697)">
                            <g id="Group">
                                <g id="Filled_Icons" transform="translate(0.798319, 1.596639)" fill-rule="nonzero" fill="#FFFFFF">
                                    <path d="M17.917479,2.26243697 C17.2676471,2.55222689 16.72,2.56180672 16.1396218,2.27521008 C16.8884454,1.82655462 16.9227731,1.51121849 17.1934034,0.663403361 C16.492479,1.07932773 15.7157143,1.38189076 14.8894538,1.5447479 C14.2284454,0.840630252 13.2856303,0.399159664 12.2422269,0.399159664 C10.2384454,0.399159664 8.61466387,2.02453782 8.61466387,4.02672269 C8.61466387,4.31092437 8.64659664,4.58794118 8.70806723,4.85378151 C5.69361345,4.70289916 3.02004202,3.2587395 1.2310084,1.06336134 C0.918865546,1.59903361 0.740042017,2.22252101 0.740042017,2.88752101 C0.740042017,4.14647059 1.38109244,5.25613445 2.35344538,5.90676471 C1.75869748,5.88760504 1.19987395,5.7247479 0.711302521,5.45331933 C0.710504202,5.46848739 0.710504202,5.48285714 0.710504202,5.49882353 C0.710504202,7.25672269 1.96067227,8.72243697 3.62117647,9.05613445 C3.0894958,9.20063025 2.52907563,9.22298319 1.98222689,9.11920168 C2.44445378,10.5593697 3.78403361,11.6083613 5.37109244,11.6378992 C3.81836134,12.8545378 1.89361345,13.3614706 0,13.1395378 C1.60621849,14.1685714 3.51180672,14.7689076 5.56109244,14.7689076 C12.2334454,14.7689076 15.8817647,9.24134454 15.8817647,4.44743697 C15.8817647,4.28936975 15.8793697,4.13369748 15.8721849,3.97802521 C16.5802941,3.46710084 17.4313025,2.9905042 17.917479,2.26243697 Z" id="Shape"></path>
                                </g>
                                <g id="Frames-24px">
                                    <rect id="Rectangle-path" x="0" y="0" width="19.1596639" height="19.1596639"></rect>
                                </g>
                            </g>
                        </g>
                    </g>
                </g>
            </g>
        </g>
    </g>
</svg>