<?xml version="1.0" encoding="UTF-8"?>
<svg width="24px" height="24px" viewBox="0 0 24 24" version="1.1" xmlns="http://www.w3.org/2000/svg" xmlns:xlink="http://www.w3.org/1999/xlink">
    <!-- Generator: Sketch 43.2 (39069) - http://www.bohemiancoding.com/sketch -->
    <title>Instagram</title>
    <desc>Created with Sketch.</desc>
    <defs></defs>
    <g id="About" stroke="none" stroke-width="1" fill="none" fill-rule="evenodd">
        <g transform="translate(-742.000000, -12640.000000)" id="Group-47" fill="#FFFFFF">
            <g transform="translate(0.000000, 12345.000000)">
                <g id="Group-34">
                    <g id="Group-37" transform="translate(646.000000, 295.000000)">
                        <path d="M108.000024,0 C111.259004,0 111.667657,0.0138138818 112.947585,0.0722132578 C114.224845,0.130469732 115.097168,0.333343257 115.860456,0.630008276 C116.649562,0.936628817 117.318773,1.34694874 117.985936,2.01406396 C118.653051,2.68122682 119.063371,3.35043794 119.370039,4.13954402 C119.666657,4.90283244 119.86953,5.77515526 119.927787,7.05241535 C119.986186,8.33234294 120,8.74099567 120,12.0000238 C120,15.2590043 119.986186,15.6676571 119.927787,16.9475847 C119.86953,18.2248447 119.666657,19.0971676 119.370039,19.860456 C119.063371,20.6495621 118.653051,21.3187732 117.985936,21.985936 C117.318773,22.6530513 116.649562,23.0633712 115.860456,23.3700394 C115.097168,23.6666567 114.224845,23.8695303 112.947585,23.9277867 C111.667657,23.9861861 111.259004,24 108.000024,24 C104.740996,24 104.332343,23.9861861 103.052415,23.9277867 C101.775155,23.8695303 100.902832,23.6666567 100.139544,23.3700394 C99.3504379,23.0633712 98.6812268,22.6530513 98.014064,21.985936 C97.3469487,21.3187732 96.9366288,20.6495621 96.6300083,19.860456 C96.3333433,19.0971676 96.1304697,18.2248447 96.0722133,16.9475847 C96.0138139,15.6676571 96,15.2590043 96,12.0000238 C96,8.74099567 96.0138139,8.33234294 96.0722133,7.05241535 C96.1304697,5.77515526 96.3333433,4.90283244 96.6300083,4.13954402 C96.9366288,3.35043794 97.3469487,2.68122682 98.014064,2.01406396 C98.6812268,1.34694874 99.3504379,0.936628817 100.139544,0.630008276 C100.902832,0.333343257 101.775155,0.130469732 103.052415,0.0722132578 C104.332343,0.0138138818 104.740996,0 108.000024,0 Z M108.000024,2.1621583 C104.79587,2.1621583 104.416322,2.17440026 103.15097,2.23213276 C101.980982,2.28548292 101.345591,2.48097316 100.922743,2.64531072 C100.362614,2.86299845 99.9628692,3.12303286 99.5429749,3.54297487 C99.1230329,3.96286924 98.8629984,4.3626144 98.6453107,4.92274348 C98.4809732,5.34559117 98.2854829,5.9809821 98.2321328,7.15097025 C98.1744003,8.41632182 98.1621583,8.79587013 98.1621583,12.0000238 C98.1621583,15.2041299 98.1744003,15.5836782 98.2321328,16.8490298 C98.2854829,18.0190179 98.4809732,18.6544088 98.6453107,19.0772565 C98.8629984,19.6373856 99.1230805,20.0371308 99.5429749,20.4570251 C99.9628692,20.8769671 100.362614,21.1370016 100.922743,21.3546893 C101.345591,21.5190268 101.980982,21.7145171 103.15097,21.7678672 C104.416179,21.8255997 104.795632,21.8378417 108.000024,21.8378417 C111.204368,21.8378417 111.583869,21.8255997 112.84903,21.7678672 C114.019018,21.7145171 114.654409,21.5190268 115.077257,21.3546893 C115.637386,21.1370016 116.037131,20.8769671 116.457025,20.4570251 C116.876967,20.0371308 117.137002,19.6373856 117.354689,19.0772565 C117.519027,18.6544088 117.714517,18.0190179 117.767867,16.8490298 C117.8256,15.5836782 117.837842,15.2041299 117.837842,12.0000238 C117.837842,8.79587013 117.8256,8.41632182 117.767867,7.15097025 C117.714517,5.9809821 117.519027,5.34559117 117.354689,4.92274348 C117.137002,4.3626144 116.876967,3.96286924 116.457025,3.54297487 C116.037131,3.12303286 115.637386,2.86299845 115.077257,2.64531072 C114.654409,2.48097316 114.019018,2.28548292 112.84903,2.23213276 C111.583678,2.17440026 111.20413,2.1621583 108.000024,2.1621583 Z M108.000024,5.8378417 C111.403288,5.8378417 114.162158,8.59671206 114.162158,12.0000238 C114.162158,15.4032879 111.403288,18.1621583 108.000024,18.1621583 C104.596712,18.1621583 101.837842,15.4032879 101.837842,12.0000238 C101.837842,8.59671206 104.596712,5.8378417 108.000024,5.8378417 Z M108.000024,16 C110.209149,16 112,14.2091493 112,12.0000238 C112,9.79085069 110.209149,8 108.000024,8 C105.790851,8 104,9.79085069 104,12.0000238 C104,14.2091493 105.790851,16 108.000024,16 Z M115.845642,5.59438394 C115.845642,6.38968246 115.200915,7.03436203 114.405616,7.03436203 C113.610365,7.03436203 112.965638,6.38968246 112.965638,5.59438394 C112.965638,4.79908543 113.610365,4.15435822 114.405616,4.15435822 C115.200915,4.15435822 115.845642,4.79908543 115.845642,5.59438394 Z" id="Instagram"></path>
                    </g>
                </g>
            </g>
        </g>
    </g>
</svg>