<?xml version="1.0" encoding="UTF-8"?>
<svg width="39px" height="39px" viewBox="0 0 39 39" version="1.1" xmlns="http://www.w3.org/2000/svg" xmlns:xlink="http://www.w3.org/1999/xlink">
    <!-- Generator: Sketch 42 (36781) - http://www.bohemiancoding.com/sketch -->
    <title>Group 26 Copy</title>
    <desc>Created with Sketch.</desc>
    <defs>
        <polygon id="path-1" points="0 17.9978571 17.9943214 17.9978571 17.9943214 0.00567857143 0 0.00567857143"></polygon>
    </defs>
    <g id="Symbols" stroke="none" stroke-width="1" fill="none" fill-rule="evenodd">
        <g id="Elements/Footer" transform="translate(-1166.000000, -403.000000)">
            <g id="Group-3" transform="translate(1025.000000, 266.000000)">
                <g id="Group-26-Copy" transform="translate(141.000000, 137.000000)">
                    <circle id="Oval-5-Copy-2" fill="#D72C73" cx="19.5" cy="19.5" r="19.5"></circle>
                    <g id="Group-2" transform="translate(11.000000, 11.000000)">
                        <mask id="mask-2" fill="white">
                            <use xlink:href="#path-1"></use>
                        </mask>
                        <g id="Clip-2"></g>
                        <path d="M8.99717857,0.00567857143 C6.55367857,0.00567857143 6.24728571,0.0160357143 5.28764286,0.0598214286 C4.33,0.1035 3.67596429,0.255607143 3.10367857,0.478035714 C2.51203571,0.707928571 2.01028571,1.01557143 1.51007143,1.51575 C1.00989286,2.01596429 0.70225,2.51771429 0.472357143,3.10935714 C0.249928571,3.68164286 0.0978214286,4.33567857 0.0541428571,5.29332143 C0.0103571429,6.25296429 0,6.55935714 0,9.00285714 C0,11.4463214 0.0103571429,11.7527143 0.0541428571,12.7123571 C0.0978214286,13.67 0.249928571,14.3240357 0.472357143,14.8963214 C0.70225,15.4879643 1.00989286,15.9897143 1.51007143,16.4899286 C2.01028571,16.9901071 2.51203571,17.29775 3.10367857,17.5276786 C3.67596429,17.7500714 4.33,17.9021786 5.28764286,17.9458571 C6.24728571,17.9896429 6.55367857,18 8.99717857,18 C11.4406429,18 11.7470357,17.9896429 12.7066786,17.9458571 C13.6643214,17.9021786 14.3183571,17.7500714 14.8906429,17.5276786 C15.4822857,17.29775 15.9840357,16.9901071 16.48425,16.4899286 C16.9844286,15.9897143 17.2920714,15.4879643 17.522,14.8963214 C17.7443929,14.3240357 17.8965,13.67 17.9401786,12.7123571 C17.9839643,11.7527143 17.9943214,11.4463214 17.9943214,9.00285714 C17.9943214,6.55935714 17.9839643,6.25296429 17.9401786,5.29332143 C17.8965,4.33567857 17.7443929,3.68164286 17.522,3.10935714 C17.2920714,2.51771429 16.9844286,2.01596429 16.48425,1.51575 C15.9840357,1.01557143 15.4822857,0.707928571 14.8906429,0.478035714 C14.3183571,0.255607143 13.6643214,0.1035 12.7066786,0.0598214286 C11.7470357,0.0160357143 11.4406429,0.00567857143 8.99717857,0.00567857143 Z M8.99717857,1.62678571 C11.3995,1.62678571 11.6840714,1.63596429 12.6327857,1.67925 C13.51,1.71925 13.9863929,1.86582143 14.3034286,1.98903571 C14.7233929,2.15225 15.0231071,2.34721429 15.3379286,2.66207143 C15.6527857,2.97689286 15.84775,3.27660714 16.0109643,3.69657143 C16.1341786,4.01360714 16.28075,4.49 16.32075,5.36721429 C16.3640357,6.31592857 16.3732143,6.6005 16.3732143,9.00285714 C16.3732143,11.4051786 16.3640357,11.68975 16.32075,12.6384643 C16.28075,13.5156786 16.1341786,13.9920714 16.0109643,14.3091071 C15.84775,14.7290714 15.6527857,15.0287857 15.3379286,15.3436071 C15.0231071,15.6584643 14.7233929,15.8534286 14.3034286,16.0166429 C13.9863929,16.1398571 13.51,16.2864286 12.6327857,16.3264286 C11.6842143,16.3697143 11.3996786,16.3788929 8.99717857,16.3788929 C6.59464286,16.3788929 6.31014286,16.3697143 5.36153571,16.3264286 C4.48432143,16.2864286 4.00792857,16.1398571 3.69089286,16.0166429 C3.27092857,15.8534286 2.97121429,15.6584643 2.65639286,15.3436071 C2.34157143,15.0287857 2.14657143,14.7290714 1.98335714,14.3091071 C1.86014286,13.9920714 1.71357143,13.5156786 1.67357143,12.6384643 C1.63028571,11.68975 1.62110714,11.4051786 1.62110714,9.00285714 C1.62110714,6.6005 1.63028571,6.31592857 1.67357143,5.36721429 C1.71357143,4.49 1.86014286,4.01360714 1.98335714,3.69657143 C2.14657143,3.27660714 2.34153571,2.97689286 2.65639286,2.66207143 C2.97121429,2.34721429 3.27092857,2.15225 3.69089286,1.98903571 C4.00792857,1.86582143 4.48432143,1.71925 5.36153571,1.67925 C6.31025,1.63596429 6.59482143,1.62678571 8.99717857,1.62678571 L8.99717857,1.62678571 Z" id="Fill-1" fill="#FFFFFF" mask="url(#mask-2)"></path>
                        <path d="M9.00001809,12.0378966 C7.32220818,12.0378966 5.96210336,10.6777918 5.96210336,9.00001809 C5.96210336,7.32220818 7.32220818,5.96210336 9.00001809,5.96210336 C10.6777918,5.96210336 12.0378966,7.32220818 12.0378966,9.00001809 C12.0378966,10.6777918 10.6777918,12.0378966 9.00001809,12.0378966 Z M9.00001809,4.32 C6.41529075,4.32 4.32,6.41529075 4.32,9.00001809 C4.32,11.5847093 6.41529075,13.68 9.00001809,13.68 C11.5847093,13.68 13.68,11.5847093 13.68,9.00001809 C13.68,6.41529075 11.5847093,4.32 9.00001809,4.32 L9.00001809,4.32 Z" id="Fill-4" fill="#FFFFFF" mask="url(#mask-2)"></path>
                        <path d="M15.12,3.96001786 C15.12,4.55649096 14.6364552,5.04 14.0399821,5.04 C13.4435448,5.04 12.96,4.55649096 12.96,3.96001786 C12.96,3.36354476 13.4435448,2.88 14.0399821,2.88 C14.6364552,2.88 15.12,3.36354476 15.12,3.96001786" id="Fill-5" fill="#FFFFFF" mask="url(#mask-2)"></path>
                    </g>
                </g>
            </g>
        </g>
    </g>
</svg>