<?xml version="1.0" encoding="UTF-8"?>
<svg width="39px" height="39px" viewBox="0 0 39 39" version="1.1" xmlns="http://www.w3.org/2000/svg" xmlns:xlink="http://www.w3.org/1999/xlink">
    <!-- Generator: Sketch 42 (36781) - http://www.bohemiancoding.com/sketch -->
    <title>Group 26</title>
    <desc>Created with Sketch.</desc>
    <defs></defs>
    <g id="Symbols" stroke="none" stroke-width="1" fill="none" fill-rule="evenodd">
        <g id="Elements/Footer" transform="translate(-1119.000000, -402.000000)">
            <g id="Group-3" transform="translate(1025.000000, 266.000000)">
                <g id="Group-26" transform="translate(94.000000, 136.000000)">
                    <circle id="Oval-5-Copy-2" fill="#0076B9" cx="19.5" cy="19.5" r="19.5"></circle>
                    <g id="Group-25" transform="translate(14.000000, 13.000000)" fill="#FFFFFF">
                        <path d="M0.184615385,3.92307692 L2.63076923,3.92307692 L2.63076923,11.8615389 L0.184615385,11.8615389 L0.184615385,3.92307692 Z M1.43076923,0 C2.21538462,0 2.86153846,0.646153846 2.86153846,1.43076923 C2.86153846,2.21538462 2.21538462,2.86153846 1.43076923,2.86153846 C0.646153846,2.86153846 0,2.21538462 0,1.43076923 C0,0.646153846 0.646153846,0 1.43076923,0 L1.43076923,0 Z" id="Fill-9"></path>
                        <path d="M4.2,3.92307692 L6.55384615,3.92307692 L6.55384615,4.98461538 L6.6,4.98461538 C6.92307692,4.33846154 7.75384615,3.69230769 8.95384615,3.69230769 C11.4461538,3.69230769 11.9076923,5.35384615 11.9076923,7.47692308 L11.9076923,11.8153846 L9.46153846,11.8153846 L9.46153846,7.93846154 C9.46153846,7.01538462 9.46153846,5.81538462 8.16923077,5.81538462 C6.87692308,5.81538462 6.69230769,6.83076923 6.69230769,7.84615385 L6.69230769,11.7692308 L4.24615385,11.7692308 L4.24615385,3.92307692 L4.2,3.92307692 Z" id="Fill-10"></path>
                    </g>
                </g>
            </g>
        </g>
    </g>
</svg>