<?xml version="1.0" encoding="UTF-8"?>
<svg width="25px" height="23px" viewBox="0 0 25 23" version="1.1" xmlns="http://www.w3.org/2000/svg" xmlns:xlink="http://www.w3.org/1999/xlink">
    <!-- Generator: Sketch 43.2 (39069) - http://www.bohemiancoding.com/sketch -->
    <title>Linkedin</title>
    <desc>Created with Sketch.</desc>
    <defs></defs>
    <g id="Page-1" stroke="none" stroke-width="1" fill="none" fill-rule="evenodd">
        <g id="SOCIAL-ICONS-SKETCH" transform="translate(-675.000000, -749.000000)" fill="#FFFFFF">
            <g id="SINGLE-WHITE" transform="translate(0.000000, 568.000000)">
                <path d="M676.352042,188.412018 L681.029732,188.412018 L681.029732,203.233596 L676.352042,203.233596 L676.352042,188.412018 Z M693.810432,188.269541 C697.13491,188.269541 699.747,190.4015 699.747,194.992013 L699.747,203.233596 L694.442798,203.233596 L694.442798,195.563224 C694.442798,193.556176 693.613305,192.185398 691.78842,192.185398 C690.39292,192.185398 689.616775,193.110527 689.255702,194.001826 C689.12038,194.321262 689.141199,194.766911 689.141199,195.213211 L689.141199,203.233596 L683.886442,203.233596 C683.886442,203.233596 683.954102,189.646824 683.886442,188.412018 L689.141199,188.412018 L689.141199,190.737852 C689.451527,189.720991 691.130681,188.269541 693.810432,188.269541 Z M678.60436,181.415 C680.330356,181.415 681.391456,182.521641 681.425287,183.984802 C681.425287,185.420638 680.330356,186.557857 678.571831,186.557857 L678.538,186.557857 C676.845184,186.557857 675.747,185.425192 675.747,183.988706 C675.747,182.524244 676.877062,181.415 678.60436,181.415 Z" id="Linkedin"></path>
            </g>
        </g>
    </g>
</svg>