<?xml version="1.0" encoding="UTF-8"?>
<svg width="29px" height="30px" viewBox="0 0 29 30" version="1.1" xmlns="http://www.w3.org/2000/svg" xmlns:xlink="http://www.w3.org/1999/xlink">
    <!-- Generator: Sketch 42 (36781) - http://www.bohemiancoding.com/sketch -->
    <title>Group 26</title>
    <desc>Created with Sketch.</desc>
    <defs></defs>
    <g id="Symbols" stroke="none" stroke-width="1" fill="none" fill-rule="evenodd">
        <g id="Elements/Footer" transform="translate(-230.000000, -508.000000)" fill="#656E79">
            <g id="Group-26" transform="translate(230.000000, 508.000000)">
                <path d="M17.4909114,3.59484281 L23.8287902,0 L23.4441171,1.76703667 C23.4352001,1.80789182 23.4352001,1.80789182 23.3928965,2.00149186 C23.3514223,2.19221768 23.3031048,2.41353353 23.2487737,2.66277049 C23.0932454,3.37496407 22.9200907,4.16866266 22.7328347,5.02333603 C22.4657409,6.24447395 22.198025,7.46561187 21.9342491,8.66663017 C26.153004,10.888822 29,14.9318396 29,19.5199349 C29,22.3826698 27.2485448,24.9606504 24.3909729,27.1758619 C22.4866854,28.6519853 19.9036726,30 19.2058693,30 C18.7967264,30 18.3975373,29.7380343 17.2798078,28.9026593 C16.5183416,28.3337667 15.5451497,27.5642938 14.5010369,26.7044879 C11.873232,28.9137457 10.4465197,30 9.85074296,30 C9.1276404,30 6.54317607,28.5721227 4.59181528,27.0146996 C1.74730775,24.745083 0,22.2073416 0,19.5199349 C0,14.9197268 2.86213406,10.8674705 7.09913762,8.64897417 C6.8393018,7.45411494 6.57614805,6.23893079 6.31382378,5.02395193 C6.12884888,4.16845736 5.95776783,3.37414286 5.80452069,2.66112807 C5.75101898,2.41168581 5.70332366,2.19016465 5.6622642,1.99902824 C5.63986814,1.89329757 5.63986814,1.89329757 5.61208043,1.76457304 L5.23487265,0.00410604547 L11.5596871,3.59135267 L14.4935715,0.000821209094 L17.4909114,3.59484281 Z M14.5064285,2.54615879 L11.9530698,5.6710647 L7.58231197,3.19183444 C7.68392374,3.66444028 7.79196402,4.16435131 7.90477382,4.6872562 C8.14117672,5.78233853 8.37840911,6.87783146 8.61315304,7.95833733 C10.4162436,7.25066039 12.4097007,6.85627472 14.5,6.85627472 C16.6037784,6.85627472 18.6094704,7.25579295 20.4216853,7.97209258 C20.6603693,6.88542764 20.9019564,5.78398095 21.1429215,4.68232895 C21.2565608,4.16250359 21.3654305,3.66546679 21.4680792,3.19532458 L17.1097636,5.66757456 L14.5064285,2.54615879 Z M11.8108133,22.1016109 C11.8869185,22.2773497 13.0154313,23.3278814 14.4935715,24.5876162 C15.1069748,24.059784 15.6807703,23.5537139 16.1537834,23.1227844 C16.51689,22.7924531 16.8119789,22.5146791 17.0205941,22.3058867 C17.1222059,22.2040568 17.2010068,22.1211147 17.2453842,22.1028428 C17.3148535,21.9418858 18.2480228,17.8251646 19.5212806,12.0621245 C19.5453356,11.9522878 19.5453356,11.9522878 19.569598,11.842451 C19.733421,11.1002833 19.9007694,10.3406649 20.0706062,9.56975487 C18.3836434,8.86433626 16.4938718,8.46707636 14.5,8.46707636 C12.5185704,8.46707636 10.6397895,8.859409 8.96091415,9.55641022 C9.13075097,10.3357377 9.29851408,11.1031575 9.46275188,11.8527161 C9.49012485,11.9771293 9.51708308,12.1007213 9.54424867,12.2234921 C10.7969767,17.9308953 11.6845244,21.8109029 11.8108133,22.1016109 Z M9.61662114,28.2649905 C9.68007666,28.2929116 9.73793316,28.3171373 9.78915378,28.3374622 C9.82648056,28.3144683 9.86857686,28.2875737 9.91440585,28.257189 C10.1474908,28.1028017 10.4647684,27.8724525 10.8498563,27.5780491 C11.5090886,27.0738267 12.3476968,26.3969451 13.241673,25.6496448 C11.5963917,24.2464038 10.5199291,23.207369 10.3160834,22.7374321 C10.1211547,22.2878201 9.31862906,18.7808467 7.95433548,12.5655256 C7.92737726,12.4427549 7.90021166,12.3189576 7.87283869,12.1943391 C7.73618123,11.5710414 7.59745005,10.9358362 7.45685254,10.2915977 C3.94917266,12.2838509 1.62682522,15.7037762 1.62682522,19.5199349 C1.62682522,21.6072431 3.11388241,23.7664071 5.61290992,25.7609187 C6.56059523,26.5170469 7.59973113,27.2013194 8.57665575,27.7410591 C8.97024584,27.9584742 9.33148606,28.1395508 9.61662114,28.2649905 Z M19.1733121,28.2684806 C19.2104315,28.2929116 19.2450624,28.3150842 19.2765828,28.3347933 C19.3215823,28.3173426 19.3713513,28.2976335 19.4252678,28.2750503 C19.7085365,28.1576174 20.0633483,27.9898854 20.4476067,27.7897157 C21.4259829,27.279129 22.4512249,26.6338639 23.3879196,25.9077098 C25.8913019,23.967398 27.3729674,21.7860613 27.3729674,19.5199349 C27.3729674,15.7144519 25.0638917,12.3033546 21.5730089,10.3088431 C21.4330335,10.9444589 21.294717,11.5712467 21.1588891,12.1865376 C21.134834,12.2963744 21.134834,12.2963744 21.1105716,12.4064164 C19.6585601,18.9791687 18.87926,22.4165446 18.741151,22.7362003 C18.5806459,23.1075921 17.4432161,24.1827601 15.752728,25.6397903 C16.6641234,26.3872959 17.5587217,27.0929198 18.2600503,27.6172618 C18.6353918,27.8977047 18.9462409,28.1194312 19.1733121,28.2684806 Z" id="Clip-2"></path>
            </g>
        </g>
    </g>
</svg>