<?xml version="1.0" encoding="UTF-8"?>
<svg width="88px" height="21px" viewBox="0 0 88 21" version="1.1" xmlns="http://www.w3.org/2000/svg" xmlns:xlink="http://www.w3.org/1999/xlink">
    <!-- Generator: Sketch 46.1 (44463) - http://www.bohemiancoding.com/sketch -->
    <title>logo-testlio</title>
    <desc>Created with Sketch.</desc>
    <defs></defs>
    <g id="Symbols" stroke="none" stroke-width="1" fill="none" fill-rule="evenodd">
        <g id="footer" transform="translate(-230.000000, -65.000000)">
            <g transform="translate(0.000000, 0.394958)" id="logo-testlio">
                <g transform="translate(229.000000, 64.000000)">
                    <rect id="Rectangle-2" x="0" y="0" width="89" height="22"></rect>
                    <path d="M8.52554376,0.605042017 L8.52554376,6.18452228 L11.5465506,6.18452228 L11.5465506,10.2862689 L8.52554376,10.2862689 L8.52554376,15.4928631 C8.52554376,16.1189465 8.58398527,16.5332602 8.70087004,16.7358166 C8.88069278,17.0488584 9.19537784,17.2053769 9.64493467,17.2053769 C10.0495358,17.2053769 10.6159689,17.0856862 11.344251,16.8463014 L11.7488501,20.7270785 C10.3911885,21.0309131 9.12345724,21.1828281 7.94561834,21.1828281 C6.57896557,21.1828281 5.57197337,21.0032922 4.92461153,20.6442149 C4.27724969,20.2851377 3.79847884,19.7396247 3.48828463,19.0076595 C3.17809041,18.2756943 3.02299563,17.0902968 3.02299563,15.4514313 L3.02299563,10.2862689 L1,10.2862689 L1,6.18452228 L3.02299563,6.18452228 L3.02299563,3.49145631 L8.52554376,0.605042017 Z M28.8742022,14.9128181 L17.8691059,14.9128181 C17.9680084,15.8151148 18.20627,16.4872237 18.5838977,16.929165 C19.1143748,17.5644555 19.8066819,17.882096 20.6608399,17.882096 C21.2003081,17.882096 21.7127952,17.7439914 22.1983166,17.4677782 C22.4950241,17.2928431 22.8142047,16.9844096 23.1558678,16.5424683 L28.5640095,17.0534603 C27.7368249,18.5265978 26.7388237,19.5830977 25.569976,20.2229918 C24.4011282,20.8628859 22.7243064,21.1828281 20.5394602,21.1828281 C18.6423303,21.1828281 17.149824,20.9089207 16.0618965,20.3610978 C14.973969,19.8132748 14.072621,18.943216 13.3578257,17.7508954 C12.6430303,16.5585747 12.285638,15.1568134 12.285638,13.5455693 C12.285638,11.2529991 13.0026704,9.39779441 14.4367567,7.97989959 C15.870843,6.56200478 17.8511111,5.85306801 20.3776205,5.85306801 C22.4275997,5.85306801 24.04598,6.17070851 25.23281,6.80599904 C26.4196401,7.44128958 27.3232357,8.36198668 27.9436242,9.56811798 C28.5640126,10.7742493 28.8742022,12.3440379 28.8742022,14.2775308 L28.8742022,14.9128181 Z M23.2907342,12.2197522 C23.1828406,11.1333133 22.8973763,10.3553242 22.4343327,9.88576166 C21.9712892,9.4161991 21.3621488,9.18142133 20.6068933,9.18142133 C19.7347531,9.18142133 19.0379505,9.53588972 18.5164645,10.2448371 C18.1837925,10.6867784 17.9725039,11.3450768 17.8825926,12.2197522 L23.2907342,12.2197522 Z M29.2356637,16.791059 L34.6842653,16.2662564 C34.9090437,16.9291683 35.2237288,17.4033273 35.6283299,17.6887477 C36.0329311,17.9741681 36.5723912,18.1168761 37.2467264,18.1168761 C37.9839996,18.1168761 38.5549283,17.9557541 38.9595294,17.6335053 C39.2742192,17.3941205 39.4315617,17.0948939 39.4315617,16.7358166 C39.4315617,16.3307038 39.2247687,16.0176668 38.8111764,15.7966962 C38.5144689,15.6401753 37.7277562,15.446829 36.4510148,15.2166512 C34.5448938,14.8759882 33.2209688,14.5606494 32.4792001,14.2706255 C31.7374313,13.9806015 31.1125567,13.4903303 30.6045574,12.7997971 C30.0965582,12.109264 29.8425624,11.3220679 29.8425624,10.4381855 C29.8425624,9.47143899 30.116788,8.63820811 30.6652473,7.93846781 C31.2137066,7.23872751 31.9689508,6.7162319 32.9310024,6.37096531 C33.893054,6.02569871 35.1832628,5.85306801 36.8016674,5.85306801 C38.5099834,5.85306801 39.7709714,5.98656909 40.5846692,6.25357525 C41.3983671,6.52058142 42.0771877,6.93489512 42.6211515,7.49652878 C43.1651153,8.05816244 43.6169131,8.81773755 43.9765586,9.77527691 L38.7707165,10.3000795 C38.6358494,9.83051694 38.4110744,9.48525552 38.0963846,9.2642849 C37.66481,8.96965741 37.1433319,8.82234587 36.5319346,8.82234587 C35.9115462,8.82234587 35.4597484,8.93513127 35.1765276,9.16070544 C34.8933068,9.38627962 34.7516985,9.66018701 34.7516985,9.98243583 C34.7516985,10.3415131 34.9315185,10.6131187 35.291164,10.7972609 C35.6508095,10.9814031 36.4330266,11.1471286 37.6378389,11.2944423 C39.4630397,11.5062058 40.8206809,11.8008289 41.7108035,12.1783204 C42.600926,12.5558119 43.2819944,13.0944197 43.7540291,13.79416 C44.2260637,14.4939003 44.4620775,15.2626823 44.4620775,16.1005293 C44.4620775,16.9475833 44.2125772,17.7716072 43.7135691,18.5726257 C43.2145611,19.3736442 42.4278484,20.011227 41.3534076,20.4853931 C40.2789667,20.9595592 38.8156812,21.1966387 36.963507,21.1966387 C34.3470863,21.1966387 32.4837012,20.8145494 31.3732958,20.0503594 C30.2628904,19.2861693 29.5503535,18.1997467 29.2356637,16.791059 L29.2356637,16.791059 Z M52.5109225,0.605042017 L52.5109225,6.18452228 L55.5319293,6.18452228 L55.5319293,10.2862689 L52.5109225,10.2862689 L52.5109225,15.4928631 C52.5109225,16.1189465 52.569364,16.5332602 52.6862488,16.7358166 C52.8660715,17.0488584 53.1807566,17.2053769 53.6303134,17.2053769 C54.0349146,17.2053769 54.6013477,17.0856862 55.3296297,16.8463014 L55.7342289,20.7270785 C54.3765672,21.0309131 53.108836,21.1828281 51.9309971,21.1828281 C50.5643443,21.1828281 49.5573521,21.0032922 48.9099903,20.6442149 C48.2626284,20.2851377 47.7838576,19.7396247 47.4736634,19.0076595 C47.1634691,18.2756943 47.0083744,17.0902968 47.0083744,15.4514313 L47.0083744,10.2862689 L44.9853787,10.2862689 L44.9853787,6.18452228 L47.0083744,6.18452228 L47.0083744,3.49145631 L52.5109225,0.605042017 Z M57.1476481,0.605042017 L62.6501963,0.605042017 L62.6501963,20.8513739 L57.1476481,20.8513739 L57.1476481,0.605042017 Z M65.1695198,0.605042017 L70.6585813,0.605042017 L70.6585813,4.43057675 L65.1695198,4.43057675 L65.1695198,0.605042017 Z M65.1695198,6.18452228 L70.6585813,6.18452228 L70.6585813,20.8513739 L65.1695198,20.8513739 L65.1695198,6.18452228 Z M72.3012734,13.5593799 C72.3012734,11.3220523 73.0385356,9.47835637 74.513082,8.02823667 C75.9876284,6.57811698 77.9791353,5.85306801 80.4876624,5.85306801 C83.355835,5.85306801 85.5226665,6.70471283 86.9882217,8.40802803 C88.1660606,9.7798873 88.7549713,11.4693665 88.7549713,13.4765163 C88.7549713,15.732258 88.0244524,17.5805575 86.5633927,19.0214701 C85.1023329,20.4623827 83.0816053,21.1828281 80.5011491,21.1828281 C78.1994181,21.1828281 76.3382807,20.584375 74.9176811,19.3874508 C73.1734006,17.9051062 72.3012734,15.9624354 72.3012734,13.5593799 L72.3012734,13.5593799 Z M77.8038216,13.5455693 C77.8038216,14.8529788 78.0623129,15.8197107 78.5793032,16.4457942 C79.0962936,17.0718776 79.7458935,17.3849146 80.5281223,17.3849146 C81.3193424,17.3849146 81.9689423,17.0764811 82.4769415,16.4596047 C82.9849407,15.8427284 83.2389365,14.852979 83.2389365,13.4903269 C83.2389365,12.2197458 82.9826929,11.2737295 82.4701982,10.6522497 C81.9577034,10.0307698 81.3238377,9.72003453 80.5685823,9.72003453 C79.7683711,9.72003453 79.1075325,10.0353733 78.5860465,10.6660603 C78.0645606,11.2967472 77.8038216,12.256574 77.8038216,13.5455693 L77.8038216,13.5455693 Z" id="testlio" fill="#FFFFFF"></path>
                </g>
            </g>
        </g>
    </g>
</svg>