<?xml version="1.0" encoding="UTF-8"?>
<svg width="137px" height="33px" viewBox="0 0 137 33" version="1.1" xmlns="http://www.w3.org/2000/svg" xmlns:xlink="http://www.w3.org/1999/xlink">
    <!-- Generator: Sketch 42 (36781) - http://www.bohemiancoding.com/sketch -->
    <title>Group 4</title>
    <desc>Created with Sketch.</desc>
    <defs>
        <path d="M18.6971029,3.933125 L25.4724265,0 L25.0609926,1.933625 C25.0516471,1.97807353 25.0516471,1.97807353 25.0062868,2.18960294 C24.9618382,2.398625 24.9103235,2.64069853 24.8524265,2.91331618 C24.6860294,3.692875 24.5007132,4.560875 24.3010368,5.49611765 C24.0151985,6.83208088 23.7289044,8.16827206 23.4469412,9.48235294 C27.9565294,11.9135735 31,16.3372279 31,21.3571765 C31,24.4893162 29.1279191,27.3096324 26.0732794,29.7335588 C24.0375368,31.3489779 21.2764853,32.8235294 20.5306618,32.8235294 C20.0932426,32.8235294 19.6665368,32.5367794 18.4716691,31.6231912 C17.6576912,31.0004559 16.6173676,30.1586691 15.5011397,29.2177279 C12.6917647,31.6352721 11.1670662,32.8235294 10.5299706,32.8235294 C9.75725,32.8235294 6.99483088,31.2612206 4.90848529,29.5573603 C1.86797794,27.0737132 0,24.2976176 0,21.3571765 C0,16.3240074 3.05965441,11.8903235 7.58861765,9.46320588 C7.31098529,8.15550735 7.02970588,6.82615441 6.74911029,5.49680147 C6.55171324,4.56064706 6.36890441,3.69173529 6.20478676,2.91149265 C6.14757353,2.63864706 6.09674265,2.39634559 6.05297794,2.18732353 C6.02858824,2.07175735 6.02858824,2.07175735 5.99918382,1.93088971 L5.59572794,0.00433088235 L12.3569191,3.92947794 L15.4931618,0.000911764706 L18.6971029,3.933125 Z M15.5068382,2.78589706 L12.7774706,6.20478676 L8.10513235,3.49205882 C8.21386029,4.00902941 8.32919853,4.55654412 8.45000735,5.12844853 C8.70279412,6.32696324 8.95603676,7.52525 9.20722794,8.70758088 C11.1344706,7.93326471 13.2654926,7.50154412 15.5,7.50154412 C17.7488676,7.50154412 19.8931103,7.93873529 21.8303824,8.722625 C22.0854485,7.53368382 22.3434779,6.32833088 22.6010515,5.12297794 C22.7227721,4.55449265 22.8387941,4.01039706 22.9486618,3.49616176 L18.2895441,6.20091176 L15.5068382,2.78589706 Z M12.6254338,24.1818235 C12.7068088,24.3739779 13.9128456,25.5232574 15.4931618,26.9016176 C16.1484926,26.3240147 16.7621103,25.7705735 17.2681397,25.2991912 C17.6560956,24.9379044 17.9713382,24.6336029 18.1944926,24.4052059 C18.3032206,24.2937426 18.3875588,24.20325 18.4347426,24.1831912 C18.5090515,24.0069926 19.5065221,19.5031029 20.8675588,13.1973382 C20.8935441,13.0772132 20.8935441,13.0772132 20.9195294,12.9573162 C21.0945882,12.1451618 21.2735221,11.3140882 21.4549632,10.47025 C19.6517206,9.69866912 17.6314779,9.26398529 15.5,9.26398529 C13.3817426,9.26398529 11.3735809,9.69342647 9.579,10.4558897 C9.76044118,11.3083897 9.93983088,12.1478971 10.1155735,12.9682574 C10.1445221,13.1043382 10.1736985,13.2397353 10.2024191,13.3739926 C11.5415735,19.6186691 12.4904926,23.8636176 12.6254338,24.1818235 Z M10.2799191,30.9252353 C10.3476176,30.9555515 10.4096176,30.9824485 10.4643235,31.0045588 C10.5044412,30.9794853 10.5491176,30.9498529 10.5983529,30.9165735 C10.8474926,30.7476691 11.1864412,30.4957941 11.5981029,30.1734853 C12.3026691,29.6220956 13.1991618,28.8812868 14.1546912,28.0638897 C12.396125,26.5287059 11.24525,25.3917353 11.0275662,24.8775 C10.819,24.3858309 9.96125735,20.5484412 8.50288971,13.7482721 C8.47394118,13.6137868 8.44499265,13.4783897 8.41604412,13.3420809 C8.26993382,12.6600809 8.12131618,11.9650882 7.97110294,11.2602941 C4.22169853,13.4398676 1.73919118,17.1815221 1.73919118,21.3571765 C1.73919118,23.6411471 3.328625,26.0033015 5.99986765,28.1853824 C7.01329412,29.0128088 8.12359559,29.7613676 9.16825,30.3519632 C9.58902941,30.5899338 9.97516176,30.7880147 10.2799191,30.9252353 Z M20.4955588,30.9288824 C20.5354485,30.9555515 20.572375,30.9799412 20.6061103,31.0015956 C20.6542059,30.9826765 20.7075441,30.9607941 20.7647574,30.9364044 C21.0676912,30.8076176 21.4472132,30.6245809 21.8575074,30.4053015 C22.9037574,29.8468456 23.9994706,29.1409118 25.0010441,28.3460809 C27.6770735,26.2228088 29.2608088,23.8364926 29.2608088,21.3571765 C29.2608088,17.193375 26.7924338,13.4612941 23.0610368,11.2789853 C22.9115074,11.9744338 22.7635735,12.6603088 22.618375,13.3334191 C22.5923897,13.4537721 22.5923897,13.4537721 22.5664044,13.5738971 C21.0143529,20.7654412 20.1814559,24.5262426 20.0339779,24.8761324 C19.8621103,25.2825515 18.6465,26.4587279 16.8393824,28.0531765 C17.8136029,28.8708015 18.7698162,29.6430662 19.5195147,30.2165662 C19.9209191,30.5236029 20.2532574,30.7661324 20.4955588,30.9288824 Z" id="path-1"></path>
    </defs>
    <g id="Symbols" stroke="none" stroke-width="1" fill="none" fill-rule="evenodd">
        <g id="Elements/Header" transform="translate(-21.000000, -23.000000)">
            <g id="Group-4" transform="translate(21.000000, 23.000000)">
                <path d="M111.735956,10.0152409 L117.615759,10.0152409 L117.615759,6 L111.735956,6 L111.735956,10.0152409 Z M103.14319,27.2505182 L109.037401,27.2505182 L109.037401,6 L103.14319,6 L103.14319,27.2505182 Z M92.2824161,9.02961314 L92.2824161,11.8561314 L90.1156131,11.8561314 L90.1156131,16.1612628 L92.2824161,16.1612628 L92.2824161,21.583073 C92.2824161,23.3028613 92.4488029,24.5475036 92.7808905,25.3156277 C93.1129781,26.0837518 93.6262044,26.6559854 94.3195401,27.0330146 C95.013219,27.4100438 96.0914745,27.5987299 97.5553358,27.5987299 C98.8171314,27.5987299 100.174985,27.4392044 101.629584,27.1201533 L101.195949,23.0469343 C100.416161,23.2984015 99.8092774,23.4239635 99.3756423,23.4239635 C98.8943212,23.4239635 98.5574307,23.259635 98.3646277,22.9313212 C98.2394088,22.7186204 98.1766277,22.2836131 98.1766277,21.6262993 L98.1766277,16.1612628 L101.412766,16.1612628 L101.412766,11.8561314 L98.1766277,11.8561314 L98.1766277,6 L92.2824161,9.02961314 Z M45.167146,9.02961314 L45.167146,11.8561314 L43,11.8561314 L43,16.1612628 L45.167146,16.1612628 L45.167146,21.583073 C45.167146,23.3028613 45.3331898,24.5475036 45.6652774,25.3156277 C45.997708,26.0837518 46.5102482,26.6559854 47.203927,27.0330146 C47.8972628,27.4100438 48.9762044,27.5987299 50.4400657,27.5987299 C51.7015182,27.5987299 53.0593723,27.4392044 54.5136277,27.1201533 L54.0806788,23.0469343 C53.3002044,23.2984015 52.6936642,23.4239635 52.2600292,23.4239635 C51.778708,23.4239635 51.4414745,23.259635 51.2490146,22.9313212 C51.1234526,22.7186204 51.0610146,22.2836131 51.0610146,21.6262993 L51.0610146,16.1612628 L54.2971533,16.1612628 L54.2971533,11.8561314 L51.0610146,11.8561314 L51.0610146,6 L45.167146,9.02961314 Z M121.744555,13.791365 C123.323686,12.2691825 125.457212,11.5086058 128.144102,11.5086058 C131.216942,11.5086058 133.537438,12.402292 135.107307,14.1900073 C136.369102,15.6301971 137,17.4031606 137,19.509927 C137,21.8774234 136.217467,23.8178029 134.652401,25.3300365 C133.087679,26.8426131 130.922934,27.5987299 128.158854,27.5987299 C125.693241,27.5987299 123.700029,26.9705766 122.177847,25.7142701 C120.309854,24.1584672 119.375343,22.1192847 119.375343,19.5970657 C119.375343,17.248781 120.16508,15.3135474 121.744555,13.791365 Z M126.100117,22.6266788 C126.654168,23.2836496 127.349905,23.6123066 128.187672,23.6123066 C129.035387,23.6123066 129.730781,23.2884526 130.274883,22.6410876 C130.819672,21.9937226 131.091723,20.9549197 131.091723,19.5246788 C131.091723,18.1908394 130.816927,17.1980073 130.268022,16.5454964 C129.718774,15.8933285 129.04019,15.567073 128.230898,15.567073 C127.37392,15.567073 126.666175,15.8981314 126.107321,16.5599051 C125.54881,17.2220219 125.269212,18.2296058 125.269212,19.5823139 C125.269212,20.9549197 125.546752,21.9690219 126.100117,22.6266788 Z M77.2033066,12.0520219 C76.1727372,12.4142993 75.3637883,12.9628613 74.7764599,13.697365 C74.1887883,14.4318686 73.8951241,15.306 73.8951241,16.3211314 C73.8951241,17.248781 74.1671752,18.0748832 74.7112774,18.799438 C75.2557226,19.5246788 75.9247007,20.0392774 76.7192409,20.3432336 C77.513781,20.6478759 78.9320146,20.9789343 80.9739416,21.3364088 C82.3417445,21.577927 83.1843139,21.7810219 83.5019927,21.9450073 C83.9448905,22.1772628 84.166854,22.5059197 84.166854,22.9313212 C84.166854,23.3080073 83.9980657,23.6219124 83.6608321,23.8733796 C83.2275401,24.2116423 82.615854,24.3804307 81.8261168,24.3804307 C81.1036204,24.3804307 80.5262409,24.230854 80.0926058,23.9310146 C79.6593139,23.6315182 79.3220803,23.1337299 79.0815912,22.4383358 L73.2450146,22.9889562 C73.5822482,24.4675693 74.3452263,25.6079197 75.534635,26.4100073 C76.7243869,27.2120949 78.72,27.6131387 81.5228467,27.6131387 C83.5067956,27.6131387 85.0746058,27.364073 86.2252482,26.8666277 C87.3762336,26.3688394 88.2184599,25.6998613 88.7532993,24.8590073 C89.2877956,24.0184964 89.5550438,23.1532847 89.5550438,22.2640584 C89.5550438,21.384781 89.3022044,20.5778905 88.7965255,19.8437299 C88.2911898,19.1088832 87.5614891,18.5435109 86.6077664,18.1472701 C85.6547299,17.7513723 84.2004745,17.4422701 82.2453431,17.2196204 C80.9547299,17.0652409 80.1166204,16.8909635 79.7313577,16.6981606 C79.346438,16.5043285 79.153635,16.2195839 79.153635,15.8425547 C79.153635,15.504292 79.3052701,15.2168029 79.6088832,14.9800876 C79.9118102,14.7433723 80.396219,14.6246715 81.0607372,14.6246715 C81.7153066,14.6246715 82.2741606,14.7797372 82.7362701,15.0888394 C83.0735036,15.3207518 83.3143358,15.6830292 83.4587664,16.1760146 L89.0349562,15.6250511 C88.6496934,14.6202117 88.1656277,13.822927 87.5831022,13.2335401 C87.0005766,12.6438102 86.2732774,12.209146 85.4015474,11.9285182 C84.5301606,11.6485766 83.1791679,11.5086058 81.3495985,11.5086058 C79.6157445,11.5086058 78.2338759,11.6897445 77.2033066,12.0520219 Z M57.3929781,13.7405912 C58.9288832,12.2523723 61.0500584,11.5086058 63.7568467,11.5086058 C65.9524672,11.5086058 67.6859781,11.8420657 68.9573796,12.5086423 C70.228781,13.175562 71.1965693,14.1419781 71.8610876,15.4078905 C72.5256058,16.6738029 72.8576934,18.3212044 72.8576934,20.350781 L72.8576934,21.0177007 L61.0696131,21.0177007 C61.1756204,21.964562 61.4308613,22.6702482 61.8353358,23.1337299 C62.4034526,23.8006496 63.1451606,24.1341095 64.0601168,24.1341095 C64.6378394,24.1341095 65.1870876,23.9889927 65.7068321,23.6994453 C66.024854,23.5159051 66.3665474,23.1920511 66.7325985,22.7282263 L72.5256058,23.264438 C71.6394672,24.810635 70.5704745,25.9194234 69.3182847,26.591146 C68.066438,27.2625255 66.2704891,27.5987299 63.9300949,27.5987299 C61.8977737,27.5987299 60.2994307,27.3112409 59.1336934,26.7362628 C57.9686423,26.1612847 57.0029124,25.2480438 56.2371898,23.9965401 C55.4714672,22.7446934 55.0886058,21.2739708 55.0886058,19.5823139 C55.0886058,17.1760511 55.8567299,15.2291533 57.3929781,13.7405912 Z M61.763292,16.1180365 C61.4065036,16.5818613 61.1800803,17.2727956 61.0836788,18.1908394 L66.8770292,18.1908394 C66.7617591,17.0504891 66.4557445,16.2339927 65.9593285,15.7413504 C65.4639416,15.248365 64.8110876,15.0017007 64.0021387,15.0017007 C63.0679708,15.0017007 62.3218029,15.373927 61.763292,16.1180365 Z M111.735956,27.2505182 L117.615759,27.2505182 L117.615759,11.8561314 L111.735956,11.8561314 L111.735956,27.2505182 Z" id="Logo---Text" fill="#FFFFFF"></path>
                <g id="Group-43">
                    <mask id="mask-2" fill="white">
                        <use xlink:href="#path-1"></use>
                    </mask>
                    <use id="Clip-2" fill="#FFFFFF" xlink:href="#path-1"></use>
                </g>
            </g>
        </g>
    </g>
</svg>