<?xml version="1.0" encoding="UTF-8"?>
<svg width="48px" height="48px" viewBox="0 0 48 48" version="1.1" xmlns="http://www.w3.org/2000/svg" xmlns:xlink="http://www.w3.org/1999/xlink">
    <!-- Generator: Sketch 42 (36781) - http://www.bohemiancoding.com/sketch -->
    <title>people-icon</title>
    <desc>Created with Sketch.</desc>
    <defs></defs>
    <g id="Symbols" stroke="none" stroke-width="1" fill="none" fill-rule="evenodd">
        <g id="people-icon">
            <path d="M27.3669434,34.1499023 C28.3389434,33.6189023 26.8629434,14.0378105 27.3669434,13.5808105 L20.6896,9.5841 C19.5206,8.6741 17.7076,7.8121 14.8966,7.8121 C6.9826,7.8121 6.6206,14.4531 6.6206,14.4531 L6.6206,18.6001 C6.1856,18.9941 5.7926,19.5581 5.7926,20.1891 L5.7926,23.0571 C5.7926,23.8141 6.1896,24.4781 6.7816,24.8611 C7.4946,27.9821 9.8936,30.2271 9.8936,30.2271 L9.8936,32.8471 C9.8936,33.8031 9.3726,34.6831 8.5366,35.1411 L2.9876,38.6301 C1.1466,39.6381 -0.0004,41.5731 -0.0004,43.6781 C-0.0004,44.9601 1.0396,46.0001 2.3226,46.0001 L11.5856,46.0001 L27.3669434,34.1499023 Z" id="Fill-4" fill="#6772E5"></path>
            <path d="M44.3309,38.5177 L36.4299,34.5547 C35.4049,34.0407 34.7589,32.9937 34.7589,31.8477 L34.7589,28.7357 C34.9799,28.4827 35.2349,28.1567 35.5069,27.7717 C36.5839,26.2457 37.3979,24.5657 37.9639,22.8027 C38.9769,22.4907 39.7249,21.5507 39.7249,20.4337 L39.7249,17.1137 C39.7249,16.3827 39.3999,15.7297 38.8959,15.2727 L38.8959,10.4717 C38.8959,10.4717 39.8789,2.9997 29.7929,2.9997 C19.7069,2.9997 20.6889,10.4717 20.6889,10.4717 L20.6889,15.2727 C20.1849,15.7297 19.8619,16.3827 19.8619,17.1137 L19.8619,20.4337 C19.8619,21.3087 20.3199,22.0787 21.0069,22.5237 C21.8339,26.1367 23.9999,28.7357 23.9999,28.7357 L23.9999,31.7707 C23.9999,32.8767 23.3959,33.8957 22.4259,34.4267 L15.0539,38.4607 C12.9159,39.6307 11.5859,41.8737 11.5859,44.3107 L11.5859,46.9997 L45.4639,46.9997 C46.8639,46.9997 47.9999,45.8647 47.9999,44.4637 C47.9999,41.9477 46.5799,39.6467 44.3309,38.5177" id="Fill-1" fill="#87BBFD"></path>
        </g>
    </g>
</svg>