<?xml version="1.0" encoding="UTF-8"?>
<svg width="300px" height="320px" viewBox="0 0 300 320" version="1.1" xmlns="http://www.w3.org/2000/svg" xmlns:xlink="http://www.w3.org/1999/xlink">
    <!-- Generator: Sketch 43.2 (39069) - http://www.bohemiancoding.com/sketch -->
    <title>principles-logo-bg</title>
    <desc>Created with Sketch.</desc>
    <defs>
        <path d="M180.939706,38.3444444 L246.507353,0 L242.525735,18.8511111 C242.435294,19.2844444 242.435294,19.2844444 241.996324,21.3466667 C241.566176,23.3844444 241.067647,25.7444444 240.507353,28.4022222 C238.897059,36.0022222 237.103676,44.4644444 235.171324,53.5822222 C232.405147,66.6066667 229.634559,79.6333333 226.905882,92.4444444 C270.547059,116.146667 300,159.273333 300,208.213333 C300,238.748889 281.883088,266.244444 252.322059,289.875556 C232.621324,305.624444 205.901471,320 198.683824,320 C194.450735,320 190.321324,317.204444 178.758088,308.297778 C170.880882,302.226667 160.813235,294.02 150.011029,284.846667 C122.823529,308.415556 108.068382,320 101.902941,320 C94.425,320 67.6919118,304.768889 47.5014706,288.157778 C18.0772059,263.944444 0,236.88 0,208.213333 C0,159.144444 29.6095588,115.92 73.4382353,92.2577778 C70.7514706,79.5088889 68.0294118,66.5488889 65.3139706,53.5888889 C63.4036765,44.4622222 61.6345588,35.9911111 60.0463235,28.3844444 C59.4926471,25.7244444 59.0007353,23.3622222 58.5772059,21.3244444 C58.3411765,20.1977778 58.3411765,20.1977778 58.0566176,18.8244444 L54.1522059,0.0422222222 L119.583088,38.3088889 L149.933824,0.00888888889 L180.939706,38.3444444 Z M150.066176,27.16 L123.652941,60.4911111 L78.4367647,34.0444444 C79.4889706,39.0844444 80.6051471,44.4222222 81.7742647,49.9977778 C84.2205882,61.6822222 86.6713235,73.3644444 89.1022059,84.8911111 C107.752941,77.3422222 128.375735,73.1333333 150,73.1333333 C171.763235,73.1333333 192.513971,77.3955556 211.261765,85.0377778 C213.730147,73.4466667 216.227206,61.6955556 218.719853,49.9444444 C219.897794,44.4022222 221.020588,39.0977778 222.083824,34.0844444 L176.995588,60.4533333 L150.066176,27.16 Z M122.181618,235.751111 C122.969118,237.624444 134.640441,248.828889 149.933824,262.266667 C156.275735,256.635556 162.213971,251.24 167.111029,246.644444 C170.865441,243.122222 173.916176,240.155556 176.075735,237.928889 C177.127941,236.842222 177.944118,235.96 178.400735,235.764444 C179.119853,234.046667 188.772794,190.137778 201.944118,128.662222 C202.195588,127.491111 202.195588,127.491111 202.447059,126.322222 C204.141176,118.404444 205.872794,110.302222 207.628676,102.075556 C190.177941,94.5533333 170.627206,90.3155556 150,90.3155556 C129.500735,90.3155556 110.066912,94.5022222 92.7,101.935556 C94.4558824,110.246667 96.1919118,118.431111 97.8926471,126.428889 C98.1727941,127.755556 98.4551471,129.075556 98.7330882,130.384444 C111.692647,191.264444 120.875735,232.648889 122.181618,235.751111 Z M99.4830882,301.493333 C100.138235,301.788889 100.738235,302.051111 101.267647,302.266667 C101.655882,302.022222 102.088235,301.733333 102.564706,301.408889 C104.975735,299.762222 108.255882,297.306667 112.239706,294.164444 C119.058088,288.788889 127.733824,281.566667 136.980882,273.597778 C119.9625,258.631111 108.825,247.546667 106.718382,242.533333 C104.7,237.74 96.3992647,200.328889 82.2860294,134.033333 C82.0058824,132.722222 81.7257353,131.402222 81.4455882,130.073333 C80.0316176,123.424444 78.5933824,116.648889 77.1397059,109.777778 C40.8551471,131.026667 16.8308824,167.504444 16.8308824,208.213333 C16.8308824,230.48 32.2125,253.508889 58.0632353,274.782222 C67.8705882,282.848889 78.6154412,290.146667 88.725,295.904444 C92.7970588,298.224444 96.5338235,300.155556 99.4830882,301.493333 Z M198.344118,301.528889 C198.730147,301.788889 199.0875,302.026667 199.413971,302.237778 C199.879412,302.053333 200.395588,301.84 200.949265,301.602222 C203.880882,300.346667 207.553676,298.562222 211.524265,296.424444 C221.649265,290.98 232.252941,284.097778 241.945588,276.348889 C267.842647,255.648889 283.169118,232.384444 283.169118,208.213333 C283.169118,167.62 259.281618,131.235556 223.171324,109.96 C221.724265,116.74 220.292647,123.426667 218.8875,129.988889 C218.636029,131.162222 218.636029,131.162222 218.384559,132.333333 C203.364706,202.444444 195.304412,239.108889 193.877206,242.52 C192.213971,246.482222 180.45,257.948889 162.961765,273.493333 C172.389706,281.464444 181.643382,288.993333 188.898529,294.584444 C192.783088,297.577778 195.999265,299.942222 198.344118,301.528889 Z" id="path-1"></path>
    </defs>
    <g id="Jobs" stroke="none" stroke-width="1" fill="none" fill-rule="evenodd" opacity="0.0991281703">
        <g transform="translate(-570.000000, -1804.000000)" id="Logo-/-Elements-/-Mark-/-White">
            <g transform="translate(570.000000, 1804.000000)">
                <mask id="mask-2" fill="white">
                    <use xlink:href="#path-1"></use>
                </mask>
                <use id="Mark" fill="#FFFFFF" fill-rule="evenodd" xlink:href="#path-1"></use>
            </g>
        </g>
    </g>
</svg>