<?xml version="1.0" encoding="UTF-8"?>
<svg width="48px" height="48px" viewBox="0 0 48 48" version="1.1" xmlns="http://www.w3.org/2000/svg" xmlns:xlink="http://www.w3.org/1999/xlink">
    <!-- Generator: Sketch 43.1 (39012) - http://www.bohemiancoding.com/sketch -->
    <title>Quote Bubble</title>
    <desc>Created with Sketch.</desc>
    <defs></defs>
    <g id="Symbols" stroke="none" stroke-width="1" fill="none" fill-rule="evenodd">
        <g id="Elements-/-How-it-Works-/-Tester-Card" transform="translate(-48.000000, -126.000000)">
            <g id="Quote-Bubble" transform="translate(48.000000, 126.000000)">
                <ellipse id="Oval" fill="#0FAFF0" cx="24" cy="24" rx="24" ry="24"></ellipse>
                <path d="M32,19.8741866 C29.9068523,20.9154065 28.8602941,22.1388216 28.8602941,23.5444685 C29.7524554,23.6485905 30.4901932,24.0173504 31.0735294,24.6507592 C31.6568657,25.284168 31.9485294,26.0173494 31.9485294,26.8503254 C31.9485294,27.7353623 31.665444,28.4815588 31.0992647,29.0889371 C30.5330854,29.6963154 29.8210827,30 28.9632353,30 C28.0024462,30 27.1703467,29.60521 26.4669118,28.8156182 C25.7634769,28.0260264 25.4117647,27.0672508 25.4117647,25.9392625 C25.4117647,22.5552976 27.281844,19.9089033 31.0220588,18 L32,19.8741866 Z M22.5882353,19.8741866 C20.4779306,20.9154065 19.4227941,22.1388216 19.4227941,23.5444685 C20.3321124,23.6485905 21.0784285,24.0173504 21.6617647,24.6507592 C22.245101,25.284168 22.5367647,26.0173494 22.5367647,26.8503254 C22.5367647,27.7353623 22.2493901,28.4815588 21.6746324,29.0889371 C21.0998746,29.6963154 20.3835827,30 19.5257353,30 C18.5649462,30 17.7371358,29.60521 17.0422794,28.8156182 C16.347423,28.0260264 16,27.0672508 16,25.9392625 C16,22.5552976 17.861501,19.9089033 21.5845588,18 L22.5882353,19.8741866 Z" id="Quote" fill="#FFFFFF"></path>
            </g>
        </g>
    </g>
</svg>