<?xml version="1.0" encoding="UTF-8"?>
<svg width="97px" height="84px" viewBox="0 0 97 84" version="1.1" xmlns="http://www.w3.org/2000/svg" xmlns:xlink="http://www.w3.org/1999/xlink">
    <!-- Generator: Sketch 46.2 (44496) - http://www.bohemiancoding.com/sketch -->
    <title>quote-bg</title>
    <desc>Created with Sketch.</desc>
    <defs></defs>
    <g id="Page1" stroke="none" stroke-width="1" fill="none" fill-rule="evenodd">
        <g id="testlio_customer_story_detail" transform="translate(-250.000000, -928.000000)" fill="#F5F7F9">
            <g id="1" transform="translate(174.000000, 640.000000)">
                <g id="quote" transform="translate(76.000000, 288.000000)">
                    <path d="M97,13.1193059 C82.9689032,20.4078456 75.95346,28.9717512 75.95346,38.8112798 C81.9339275,39.5401338 86.8792399,42.1214529 90.7895456,46.5553145 C94.6998512,50.9891762 96.6549748,56.1214459 96.6549748,61.9522777 C96.6549748,68.1475364 94.7573549,73.3709115 90.9620582,77.6225597 C87.1667615,81.8742078 82.39396,84 76.6435105,84 C70.2030071,84 64.6251547,81.2364702 59.9097861,75.7093275 C55.1944175,70.1821849 52.8367686,63.4707553 52.8367686,55.5748373 C52.8367686,31.8870833 65.3725605,13.3623228 90.4445203,0 L97,13.1193059 Z M44.1632314,13.1193059 C30.0171256,20.4078456 22.9441788,28.9717512 22.9441788,38.8112798 C29.0396553,39.5401338 34.0424713,42.1214529 37.952777,46.5553145 C41.8630826,50.9891762 43.8182062,56.1214459 43.8182062,61.9522777 C43.8182062,68.1475364 41.8918345,73.3709115 38.0390333,77.6225597 C34.1862321,81.8742078 29.3846788,84 23.6342293,84 C17.1937259,84 11.6446253,81.2364702 6.98676122,75.7093275 C2.32889712,70.1821849 0,63.4707553 0,55.5748373 C0,31.8870833 12.4782883,13.3623228 37.4352391,0 L44.1632314,13.1193059 Z" id="quote-bg" transform="translate(48.500000, 42.000000) scale(-1, -1) rotate(180.000000) translate(-48.500000, -42.000000) "></path>
                </g>
            </g>
        </g>
    </g>
</svg>