<?xml version="1.0" encoding="UTF-8"?>
<svg width="37px" height="37px" viewBox="0 0 37 37" version="1.1" xmlns="http://www.w3.org/2000/svg" xmlns:xlink="http://www.w3.org/1999/xlink">
    <!-- Generator: Sketch 42 (36781) - http://www.bohemiancoding.com/sketch -->
    <title>twitter-gray</title>
    <desc>Created with Sketch.</desc>
    <defs>
        <circle id="path-1" cx="18.5" cy="18.5" r="18.5"></circle>
        <mask id="mask-2" maskContentUnits="userSpaceOnUse" maskUnits="objectBoundingBox" x="0" y="0" width="37" height="37" fill="white">
            <use xlink:href="#path-1"></use>
        </mask>
    </defs>
    <g id="Blog" stroke="none" stroke-width="1" fill="none" fill-rule="evenodd">
        <g id="Overlay---Blog---Post-Footer" transform="translate(-986.000000, -17.000000)">
            <g id="Group-3" transform="translate(939.000000, 17.000000)">
                <g id="twitter-gray" transform="translate(47.000000, 0.000000)">
                    <use id="Oval-5-Copy" stroke="#A5B8C4" mask="url(#mask-2)" stroke-width="2" opacity="0.302423007" xlink:href="#path-1"></use>
                    <path d="M27,13.5143489 C26.4091426,13.7734612 25.7773322,13.946199 25.1162697,14.0210513 C25.7948835,13.623751 26.3155417,12.9903715 26.5612418,12.2360791 C25.9235869,12.6045879 25.2215714,12.8752111 24.4727643,13.0191631 C23.8760506,12.391542 23.021936,12 22.0800767,12 C20.2665456,12 18.7981718,13.4452549 18.7981718,15.230227 C18.7981718,15.4835811 18.8274239,15.7311769 18.8859223,15.9672502 C16.1539306,15.8290623 13.737843,14.5450286 12.1173677,12.5930713 C11.8365627,13.0709879 11.6727602,13.623751 11.6727602,14.2168222 C11.6727602,15.3396291 12.2519197,16.3242481 13.1352836,16.9058028 C12.5970747,16.8885278 12.0939671,16.7445816 11.6493603,16.5027442 L11.6493603,16.5430523 C11.6493603,18.1092202 12.7784278,19.4105266 14.2819012,19.7099414 C14.0069472,19.7847954 13.7144425,19.8251013 13.416088,19.8251013 C13.2054846,19.8251013 13.0007315,19.8020697 12.7959779,19.7675216 C13.2113344,21.0515525 14.4281535,21.9843456 15.8614266,22.0131354 C14.7382083,22.8768334 13.3224865,23.3950518 11.7839124,23.3950518 C11.5206582,23.3950518 11.257404,23.377778 11,23.3489882 C12.4508229,24.2645075 14.1766001,24.8 16.0310788,24.8 C22.0683758,24.8 25.3678261,19.8769226 25.3678261,15.6102581 C25.3678261,15.4720645 25.3619757,15.3281125 25.3561253,15.1899246 C26.0054869,14.7292829 26.5612418,14.1592449 27,13.5143489 Z" id="Fill-1" fill="#A5B8C4"></path>
                </g>
            </g>
        </g>
    </g>
</svg>