<?xml version="1.0" encoding="UTF-8"?>
<svg width="39px" height="39px" viewBox="0 0 39 39" version="1.1" xmlns="http://www.w3.org/2000/svg" xmlns:xlink="http://www.w3.org/1999/xlink">
    <!-- Generator: Sketch 42 (36781) - http://www.bohemiancoding.com/sketch -->
    <title>Group 27</title>
    <desc>Created with Sketch.</desc>
    <defs></defs>
    <g id="Symbols" stroke="none" stroke-width="1" fill="none" fill-rule="evenodd">
        <g id="Elements/Footer" transform="translate(-1072.000000, -402.000000)">
            <g id="Group-3" transform="translate(1025.000000, 266.000000)">
                <g id="Group-27" transform="translate(47.000000, 136.000000)">
                    <circle id="Oval-5-Copy" fill="#02A1F8" cx="19.5" cy="19.5" r="19.5"></circle>
                    <path d="M28,14.5143489 C27.4091426,14.7734612 26.7773322,14.946199 26.1162697,15.0210513 C26.7948835,14.623751 27.3155417,13.9903715 27.5612418,13.2360791 C26.9235869,13.6045879 26.2215714,13.8752111 25.4727643,14.0191631 C24.8760506,13.391542 24.021936,13 23.0800767,13 C21.2665456,13 19.7981718,14.4452549 19.7981718,16.230227 C19.7981718,16.4835811 19.8274239,16.7311769 19.8859223,16.9672502 C17.1539306,16.8290623 14.737843,15.5450286 13.1173677,13.5930713 C12.8365627,14.0709879 12.6727602,14.623751 12.6727602,15.2168222 C12.6727602,16.3396291 13.2519197,17.3242481 14.1352836,17.9058028 C13.5970747,17.8885278 13.0939671,17.7445816 12.6493603,17.5027442 L12.6493603,17.5430523 C12.6493603,19.1092202 13.7784278,20.4105266 15.2819012,20.7099414 C15.0069472,20.7847954 14.7144425,20.8251013 14.416088,20.8251013 C14.2054846,20.8251013 14.0007315,20.8020697 13.7959779,20.7675216 C14.2113344,22.0515525 15.4281535,22.9843456 16.8614266,23.0131354 C15.7382083,23.8768334 14.3224865,24.3950518 12.7839124,24.3950518 C12.5206582,24.3950518 12.257404,24.377778 12,24.3489882 C13.4508229,25.2645075 15.1766001,25.8 17.0310788,25.8 C23.0683758,25.8 26.3678261,20.8769226 26.3678261,16.6102581 C26.3678261,16.4720645 26.3619757,16.3281125 26.3561253,16.1899246 C27.0054869,15.7292829 27.5612418,15.1592449 28,14.5143489 Z" id="Fill-1" fill="#FFFFFF"></path>
                </g>
            </g>
        </g>
    </g>
</svg>