<?xml version="1.0" encoding="UTF-8"?>
<svg width="24px" height="20px" viewBox="0 0 24 20" version="1.1" xmlns="http://www.w3.org/2000/svg" xmlns:xlink="http://www.w3.org/1999/xlink">
    <!-- Generator: Sketch 43.2 (39069) - http://www.bohemiancoding.com/sketch -->
    <title>Twitter</title>
    <desc>Created with Sketch.</desc>
    <defs></defs>
    <g id="About" stroke="none" stroke-width="1" fill="none" fill-rule="evenodd">
        <g transform="translate(-694.000000, -12642.000000)" id="Group-47" fill="#FFFFFF">
            <g transform="translate(0.000000, 12345.000000)">
                <g id="Group-34">
                    <g id="Group-37" transform="translate(646.000000, 295.000000)">
                        <path d="M72,4.36764175 C71.1181546,4.76923077 70.1686917,5.04080896 69.1727417,5.1621524 C70.1898222,4.5381004 70.9702412,3.54857349 71.3379116,2.3698086 C70.3856313,2.94763453 69.3333333,3.36800289 68.2091918,3.593355 C67.3132594,2.61249549 66.0327522,2 64.6156013,2 C61.8982215,2 59.693608,4.26074395 59.693608,7.04875406 C59.693608,7.44456482 59.735869,7.82881907 59.8203909,8.19862766 C55.7281211,7.9877212 52.100722,5.97977609 49.6707167,2.92163236 C49.2466984,3.66991694 49.0044022,4.5381004 49.0044022,5.46262189 C49.0044022,7.21343445 49.8735693,8.75911882 51.1949287,9.66486096 C50.389153,9.64030336 49.6284557,9.41061755 48.9635499,9.0350307 L48.9635499,9.09714698 C48.9635499,11.5442398 50.6610319,13.5854099 52.9149498,14.0476706 C52.5022011,14.166125 52.0669132,14.2253521 51.6175383,14.2253521 C51.3005811,14.2253521 50.9906674,14.1950163 50.6906145,14.1357891 C51.3174855,16.1408451 53.1347068,17.6013001 55.2900158,17.6403034 C53.6052122,18.9953052 51.4808945,19.8028169 49.1748547,19.8028169 C48.7776017,19.8028169 48.3845747,19.7797039 48,19.7334778 C50.1792569,21.163597 52.7684451,22 55.5478077,22 C64.6057404,22 69.5573164,14.3076923 69.5573164,7.63524738 C69.5573164,7.41567353 69.5530903,7.19609967 69.5446381,6.98085952 C70.5067794,6.26868906 71.3421377,5.38028169 72,4.36764175" id="Twitter"></path>
                    </g>
                </g>
            </g>
        </g>
    </g>
</svg>