<?xml version="1.0" encoding="UTF-8"?>
<svg width="1440px" height="748px" viewBox="0 0 1440 748" version="1.1" xmlns="http://www.w3.org/2000/svg" xmlns:xlink="http://www.w3.org/1999/xlink">
    <!-- Generator: Sketch 43.2 (39069) - http://www.bohemiancoding.com/sketch -->
    <title>work-principles-bg</title>
    <desc>Created with Sketch.</desc>
    <defs>
        <ellipse id="path-1" cx="203.336372" cy="159.313573" rx="23.3363719" ry="23.3135725"></ellipse>
        <ellipse id="path-2" cx="358.336372" cy="264.313573" rx="23.3363719" ry="23.3135725"></ellipse>
        <ellipse id="path-3" cx="156.336372" cy="445.313573" rx="23.3363719" ry="23.3135725"></ellipse>
        <ellipse id="path-4" cx="549.336372" cy="136.313573" rx="23.3363719" ry="23.3135725"></ellipse>
        <ellipse id="path-5" cx="1086.33637" cy="159.313573" rx="23.3363719" ry="23.3135725"></ellipse>
        <ellipse id="path-6" cx="1263.33637" cy="340.313573" rx="23.3363719" ry="23.3135725"></ellipse>
        <ellipse id="path-7" cx="1240.33637" cy="542.313573" rx="23.3363719" ry="23.3135725"></ellipse>
        <ellipse id="path-8" cx="1133.33637" cy="715.313573" rx="23.3363719" ry="23.3135725"></ellipse>
        <ellipse id="path-9" cx="1393.33637" cy="738.313573" rx="23.3363719" ry="23.3135725"></ellipse>
        <ellipse id="path-10" cx="1439.33637" cy="472.313573" rx="23.3363719" ry="23.3135725"></ellipse>
        <ellipse id="path-11" cx="1439.33637" cy="264.313573" rx="23.3363719" ry="23.3135725"></ellipse>
        <ellipse id="path-12" cx="1310.33637" cy="147.313573" rx="23.3363719" ry="23.3135725"></ellipse>
        <ellipse id="path-13" cx="405.336372" cy="519.313573" rx="23.3363719" ry="23.3135725"></ellipse>
        <ellipse id="path-14" cx="502.336372" cy="750.313573" rx="23.3363719" ry="23.3135725"></ellipse>
        <ellipse id="path-15" cx="168.336372" cy="773.313573" rx="23.3363719" ry="23.3135725"></ellipse>
        <ellipse id="path-16" cx="244.336372" cy="616.313573" rx="23.3363719" ry="23.3135725"></ellipse>
    </defs>
    <g id="Jobs" stroke="none" stroke-width="1" fill="none" fill-rule="evenodd" opacity="0.4">
        <g transform="translate(0.000000, -1540.000000)" id="Circles">
            <g transform="translate(0.000000, 1540.000000)">
                <g id="work-principles-bg" transform="translate(-74.000000, -84.000000)">
                    <polyline id="Path-2" stroke="#FFFFFF" stroke-width="2" points="624.159375 0.473414978 550.032925 135.6632 359.382706 264.739695 203.713465 158.307338 155.159917 446.825733 407.044238 520.093881 243.31411 617.589701 169.931391 774.04048 133.133644 933.515114 533.673824 913.927566 504.597344 751.408617 244.616209 616.0835 154.968502 444.620652 359.629811 262.694196 406.799629 518.642469 504.07269 752.216792"></polyline>
                    <polygon id="Path-6" stroke="#FFFFFF" stroke-width="2" points="1010.15586 27.7332357 1086.4052 160.079096 1311.87751 145.850239 1262.57855 342.881202 1444.71778 472.518277 1240.49409 542.610477 1133.232 716.554486 1104.25781 869.739991 1479.74377 863.336291 1395.82052 740.352517 1240.97554 542.862859 1262.39892 343.315425 1441.62028 264.833807 1312.77882 146.221694 1311.68041 27.7332357"></polygon>
                    <path d="M0,744 C4.3127794,744 181.369969,775.106024 181.369969,775.106024 L517.566263,751.328452" id="Path-5" stroke="#FFFFFF" stroke-width="2"></path>
                    <polyline id="Path-7" stroke="#FFFFFF" stroke-width="2" points="1129.8767 715.899794 1391.94557 739.427765 1444.4109 470.844722 1439.54163 259.976816 1525.85041 49.2562145 1626.93067 189.908472 1605.41996 291.737531 1446.54274 266.523729"></polyline>
                    <polyline id="Path-8" stroke="#FFFFFF" stroke-width="2" points="1442.07856 473.590334 1633.71491 492.244947 1640.40503 668.712914 1390.82441 740.712597"></polyline>
                    <path d="M1265.5574,342.971222 L1087.98055,160.005443" id="Path-9" stroke="#FFFFFF" stroke-width="2"></path>
                    <polyline id="Path-3" stroke="#FFFFFF" stroke-width="2" points="550.040001 135.735403 201.58981 159.956342 152.62708 27.864174 2.13399259 61.7894624 24.1602654 447.275833 158.805729 446.130123"></polyline>
                    <g id="Oval-Copy-9">
                        <use fill="#0FAFF0" fill-rule="evenodd" xlink:href="#path-1"></use>
                        <ellipse stroke="#FFFFFF" stroke-width="2" cx="203.336372" cy="159.313573" rx="22.3363719" ry="22.3135725"></ellipse>
                    </g>
                    <g id="Oval-Copy-10">
                        <use fill="#0FAFF0" fill-rule="evenodd" xlink:href="#path-2"></use>
                        <ellipse stroke="#FFFFFF" stroke-width="2" cx="358.336372" cy="264.313573" rx="22.3363719" ry="22.3135725"></ellipse>
                    </g>
                    <g id="Oval-Copy-11">
                        <use fill="#0FAFF0" fill-rule="evenodd" xlink:href="#path-3"></use>
                        <ellipse stroke="#FFFFFF" stroke-width="2" cx="156.336372" cy="445.313573" rx="22.3363719" ry="22.3135725"></ellipse>
                    </g>
                    <g id="Oval-Copy-17">
                        <use fill="#0FAFF0" fill-rule="evenodd" xlink:href="#path-4"></use>
                        <ellipse stroke="#FFFFFF" stroke-width="2" cx="549.336372" cy="136.313573" rx="22.3363719" ry="22.3135725"></ellipse>
                    </g>
                    <g id="Oval-Copy-18">
                        <use fill="#0FAFF0" fill-rule="evenodd" xlink:href="#path-5"></use>
                        <ellipse stroke="#FFFFFF" stroke-width="2" cx="1086.33637" cy="159.313573" rx="22.3363719" ry="22.3135725"></ellipse>
                    </g>
                    <g id="Oval-Copy-19">
                        <use fill="#0FAFF0" fill-rule="evenodd" xlink:href="#path-6"></use>
                        <ellipse stroke="#FFFFFF" stroke-width="2" cx="1263.33637" cy="340.313573" rx="22.3363719" ry="22.3135725"></ellipse>
                    </g>
                    <g id="Oval-Copy-20">
                        <use fill="#0FAFF0" fill-rule="evenodd" xlink:href="#path-7"></use>
                        <ellipse stroke="#FFFFFF" stroke-width="2" cx="1240.33637" cy="542.313573" rx="22.3363719" ry="22.3135725"></ellipse>
                    </g>
                    <g id="Oval-Copy-21">
                        <use fill="#0FAFF0" fill-rule="evenodd" xlink:href="#path-8"></use>
                        <ellipse stroke="#FFFFFF" stroke-width="2" cx="1133.33637" cy="715.313573" rx="22.3363719" ry="22.3135725"></ellipse>
                    </g>
                    <g id="Oval-Copy-22">
                        <use fill="#0FAFF0" fill-rule="evenodd" xlink:href="#path-9"></use>
                        <ellipse stroke="#FFFFFF" stroke-width="2" cx="1393.33637" cy="738.313573" rx="22.3363719" ry="22.3135725"></ellipse>
                    </g>
                    <g id="Oval-Copy-23">
                        <use fill="#0FAFF0" fill-rule="evenodd" xlink:href="#path-10"></use>
                        <ellipse stroke="#FFFFFF" stroke-width="2" cx="1439.33637" cy="472.313573" rx="22.3363719" ry="22.3135725"></ellipse>
                    </g>
                    <g id="Oval-Copy-24">
                        <use fill="#0FAFF0" fill-rule="evenodd" xlink:href="#path-11"></use>
                        <ellipse stroke="#FFFFFF" stroke-width="2" cx="1439.33637" cy="264.313573" rx="22.3363719" ry="22.3135725"></ellipse>
                    </g>
                    <g id="Oval-Copy-25">
                        <use fill="#0FAFF0" fill-rule="evenodd" xlink:href="#path-12"></use>
                        <ellipse stroke="#FFFFFF" stroke-width="2" cx="1310.33637" cy="147.313573" rx="22.3363719" ry="22.3135725"></ellipse>
                    </g>
                    <g id="Oval-Copy-13">
                        <use fill="#0FAFF0" fill-rule="evenodd" xlink:href="#path-13"></use>
                        <ellipse stroke="#FFFFFF" stroke-width="2" cx="405.336372" cy="519.313573" rx="22.3363719" ry="22.3135725"></ellipse>
                    </g>
                    <g id="Oval-Copy-14">
                        <use fill="#0FAFF0" fill-rule="evenodd" xlink:href="#path-14"></use>
                        <ellipse stroke="#FFFFFF" stroke-width="2" cx="502.336372" cy="750.313573" rx="22.3363719" ry="22.3135725"></ellipse>
                    </g>
                    <g id="Oval-Copy-15">
                        <use fill="#0FAFF0" fill-rule="evenodd" xlink:href="#path-15"></use>
                        <ellipse stroke="#FFFFFF" stroke-width="2" cx="168.336372" cy="773.313573" rx="22.3363719" ry="22.3135725"></ellipse>
                    </g>
                    <g id="Oval-Copy-16">
                        <use fill="#0FAFF0" fill-rule="evenodd" xlink:href="#path-16"></use>
                        <ellipse stroke="#FFFFFF" stroke-width="2" cx="244.336372" cy="616.313573" rx="22.3363719" ry="22.3135725"></ellipse>
                    </g>
                </g>
            </g>
        </g>
    </g>
</svg>